# Viewport 2D file

o Novo Objeto
# color #9b59b6
v 15.999999999999996 1.8920418676062638e-14 0.0
v 36.0 5.443398742741893e-14 0.0
v 25.99999999999998 20.00000000000002 0.0
f 1 2 3

o Novo Objeto (1)
# color #e67e22
v -38.18376618407357 9.899494936611637 0.0
v -14.961820565551683 6.221500076575248 0.0
v -4.28786374843988 27.17031986114723 0.0
v -20.912941259538027 43.79539737224536 0.0
v -41.86176104410998 33.12144055513351 0.0
f 4 5 6 7 8

o Novo Objeto (2)
# color #f1c40f
v 10.000000000000046 -46.769552621700456 0.0
v 10.00000000000002 -26.769552621700456 0.0
v -9.999999999999977 -26.769552621700477 0.0
v -9.999999999999952 -46.76955262170046 0.0
f 9 10 11 12

o Novo Objeto (3)
# color #34495e
v 0.0 0.0 0.0
p 13
